<svg xmlns="http://www.w3.org/2000/svg" xmlns:xlink="http://www.w3.org/1999/xlink" viewBox="0 0 684.16 406.71"><defs><style>.bfb8d0d6-5fe4-43dd-8927-5ac12953f3cb{isolation:isolate;}.ba70951b-f429-496b-8ffc-8d7ac76ff54d{fill:#98c4f9;}.a124c4fd-9ec3-45f2-a8a7-f4c8b4370f02,.bd0f35df-e504-4bfa-8112-b165eec389ca,.fee5fdfd-7e06-4a48-9573-4072354d8bfa{opacity:0.25;mix-blend-mode:overlay;}.a4cf22ea-95cd-4f29-b6e0-faf1ddc1f1e8{fill:url(#ff62456b-3f6e-4ade-888b-bb07af279780);}.fa2f80d7-13bc-4e58-8c2a-648ea977bb1b{fill:#ff6643;}.b4114da2-109d-4d4f-8077-894c17bc7bf6{fill:#092533;}.bf5f8bf8-9fdc-4e17-8038-883eb6d04a57{fill:url(#b6c03fd3-7c7a-4e94-aace-8d8539cbb4a5);}.e59f2985-9eb0-4961-a047-d40272105954{fill:url(#f36d94c3-a1a1-4790-9463-3fb6356bb9dc);}.e7cafcfe-c1e0-4b32-b459-b9638be846ab{fill:#4d5aff;}.f4eaa714-f251-4b11-846e-4ae6db0e6233{fill:url(#bd478713-06d8-406a-9fc5-361e58e887be);}.a124c4fd-9ec3-45f2-a8a7-f4c8b4370f02,.fee5fdfd-7e06-4a48-9573-4072354d8bfa{fill:none;stroke-miterlimit:10;stroke-width:0.46px;}.fee5fdfd-7e06-4a48-9573-4072354d8bfa{stroke:#fff;}.a7ad20da-9b84-4d53-a9d5-77f5c706a24f{fill:#6c5be8;}.a8bd14f8-898d-46c7-8f49-aef370a66380{fill:#ff9280;}.a54cb01a-199a-4076-bb3b-5cb9e9c64412{fill:#350909;}.a8d7fcec-b2cb-49a5-ba22-4e237ff380d2{fill:url(#b719d71d-741b-45d0-b703-510abb139f1e);}.f7918db2-568c-4528-9352-0126efffbd8a{fill:url(#f81ef5ba-9ee8-4046-bc8a-ebfb199b12f2);}.f0bbae58-0ef6-4153-b7f5-21a960ed9ecb{fill:#12006d;}.bf7768c8-aaa0-4f39-8659-c29386f2b8f3{fill:url(#f272dda7-0b95-495b-be6b-b8ee228058b0);}.b6f0b309-6a71-4c5d-9d45-39b56f964db1{fill:url(#baca26e8-df0f-49c5-9750-f54001ca708b);}.bd1d0963-67bc-46bf-9a26-f2574b5a26fa{fill:url(#f71e6d27-2dc7-4aa1-ad73-6752bd977f2c);}.b7ea5c25-5934-4d10-a6ed-020d3a903612{fill:url(#e84beb4c-3735-48db-98b6-eefee3d7ea66);}.a6cf8d67-1355-4a59-908e-8b598ec414f1{fill:url(#e2fc5d67-9b95-47e4-a7e6-cbec8948766c);}.fc11d653-e57d-4ac6-aca0-c059baf51c4a{fill:url(#e4d0fba5-cde0-41d9-a255-e1527d749a54);}.e6fd752f-0841-491d-94ae-04fbeab7a4ea{fill:#ff7900;}.b2c6c81f-3c0e-4764-9d30-33d5f17edd18{fill:#c64200;}.fe8d447b-ea7d-4ff6-8071-807276fe7058{fill:url(#f8d3a69d-bd5b-4021-988f-6e4ec3bceb84);}.a5266c24-14e4-42bf-b486-3599979d1078{fill:url(#e417cd14-eb7c-4055-b581-0398b6c61ccc);}.a68b9c3d-8571-4333-b070-464f17457cae{fill:#ffb000;}.a124c4fd-9ec3-45f2-a8a7-f4c8b4370f02{stroke:#000;}.bc95457f-e351-477a-8bfd-73537d314e32{fill:url(#b10e3929-a790-4c51-b50e-027742e6a893);}.fea9e00b-7b76-4db1-876a-27657c892ed2{fill:url(#a2f86273-d7d1-4a15-8c48-56f316799919);}.bea4bb49-4136-40e6-82d6-1e10f1299f24{fill:url(#fabf6278-474b-4047-ae48-0f75b09924f3);}.f4345a4f-d9c2-4345-8ee4-5ee0e5a3a4fb{fill:url(#b72cb3d9-1577-428d-a50a-4d2143fe0e5f);}</style><linearGradient id="ff62456b-3f6e-4ade-888b-bb07af279780" x1="443.39" y1="238.23" x2="451.26" y2="364.08" gradientUnits="userSpaceOnUse"><stop offset="0" stop-color="#ffb000"/><stop offset="1" stop-color="#ff7900"/></linearGradient><linearGradient id="b6c03fd3-7c7a-4e94-aace-8d8539cbb4a5" x1="145.41" y1="204.17" x2="146.31" y2="195.65" gradientUnits="userSpaceOnUse"><stop offset="0" stop-color="#ffc5ae"/><stop offset="1" stop-color="#ea8b6a"/></linearGradient><linearGradient id="f36d94c3-a1a1-4790-9463-3fb6356bb9dc" x1="156.77" y1="201.32" x2="148.9" y2="201.9" xlink:href="#b6c03fd3-7c7a-4e94-aace-8d8539cbb4a5"/><linearGradient id="bd478713-06d8-406a-9fc5-361e58e887be" x1="146.47" y1="233.43" x2="153.68" y2="207.54" xlink:href="#b6c03fd3-7c7a-4e94-aace-8d8539cbb4a5"/><linearGradient id="b719d71d-741b-45d0-b703-510abb139f1e" x1="434.15" y1="138.5" x2="434.47" y2="131.01" xlink:href="#b6c03fd3-7c7a-4e94-aace-8d8539cbb4a5"/><linearGradient id="f81ef5ba-9ee8-4046-bc8a-ebfb199b12f2" x1="435.6" y1="141.69" x2="435.36" y2="136.37" xlink:href="#b6c03fd3-7c7a-4e94-aace-8d8539cbb4a5"/><linearGradient id="f272dda7-0b95-495b-be6b-b8ee228058b0" x1="419.17" y1="181.89" x2="425.06" y2="143.55" xlink:href="#b6c03fd3-7c7a-4e94-aace-8d8539cbb4a5"/><linearGradient id="baca26e8-df0f-49c5-9750-f54001ca708b" x1="452.17" y1="135.64" x2="456.76" y2="159.84" xlink:href="#b6c03fd3-7c7a-4e94-aace-8d8539cbb4a5"/><linearGradient id="f71e6d27-2dc7-4aa1-ad73-6752bd977f2c" x1="322.04" y1="99.95" x2="324.9" y2="106.04" xlink:href="#b6c03fd3-7c7a-4e94-aace-8d8539cbb4a5"/><linearGradient id="e84beb4c-3735-48db-98b6-eefee3d7ea66" x1="317.69" y1="99.8" x2="324.81" y2="102.79" xlink:href="#b6c03fd3-7c7a-4e94-aace-8d8539cbb4a5"/><linearGradient id="e2fc5d67-9b95-47e4-a7e6-cbec8948766c" x1="321.78" y1="97.5" x2="326.37" y2="107.25" xlink:href="#b6c03fd3-7c7a-4e94-aace-8d8539cbb4a5"/><linearGradient id="e4d0fba5-cde0-41d9-a255-e1527d749a54" x1="387.11" y1="107.15" x2="374.08" y2="122.64" xlink:href="#b6c03fd3-7c7a-4e94-aace-8d8539cbb4a5"/><linearGradient id="f8d3a69d-bd5b-4021-988f-6e4ec3bceb84" x1="350.68" y1="130.75" x2="349.28" y2="114.53" xlink:href="#b6c03fd3-7c7a-4e94-aace-8d8539cbb4a5"/><linearGradient id="e417cd14-eb7c-4055-b581-0398b6c61ccc" x1="348.29" y1="130.88" x2="348.95" y2="126.7" xlink:href="#b6c03fd3-7c7a-4e94-aace-8d8539cbb4a5"/><linearGradient id="b10e3929-a790-4c51-b50e-027742e6a893" x1="589.35" y1="41.21" x2="368.46" y2="92.34" gradientUnits="userSpaceOnUse"><stop offset="0" stop-color="#fff" stop-opacity="0"/><stop offset="1" stop-color="#98c4f9"/></linearGradient><linearGradient id="a2f86273-d7d1-4a15-8c48-56f316799919" x1="-1412.1" y1="767.42" x2="-1633" y2="818.55" gradientTransform="translate(-1279.07 -686.23) rotate(-124.33)" xlink:href="#b10e3929-a790-4c51-b50e-027742e6a893"/><linearGradient id="fabf6278-474b-4047-ae48-0f75b09924f3" x1="612.33" y1="264.91" x2="295.25" y2="338.3" xlink:href="#b10e3929-a790-4c51-b50e-027742e6a893"/><linearGradient id="b72cb3d9-1577-428d-a50a-4d2143fe0e5f" x1="-1727.49" y1="282.57" x2="-2044.56" y2="355.96" gradientTransform="matrix(-1, 0, 0, 1, -1655.65, 0)" xlink:href="#b10e3929-a790-4c51-b50e-027742e6a893"/></defs><title>Middel 1test bg</title><g class="bfb8d0d6-5fe4-43dd-8927-5ac12953f3cb"><g id="f48f5eb0-5a99-4b40-96cb-23ae5c5eb8e5" data-name="Laag 2"><g id="bdcf958c-6bff-49fa-a693-b6e5b81a0935" data-name="OBJECTS"><path class="ba70951b-f429-496b-8ffc-8d7ac76ff54d" d="M518.68,274.16l-9.2-27-15.35,5.23-31.36-92-35,11.91.1.31L416.64,221.3l-16.05,69.25L410,311.21,443,300l12-4.09,13.38-4.56,10.92,32.05,35-11.91-10.93-32.06Zm-63.57-8.44-7.93,2.7L432,273.6l10.36-51.48,1-4.27,15.84,46.48Z"/><polygon class="bd0f35df-e504-4bfa-8112-b165eec389ca" points="503.32 279.39 514.25 311.45 491.98 301.93 456.38 173.68 443.33 217.85 437.28 242.87 416.63 221.3 427.91 172.62 427.81 172.31 462.77 160.4 494.13 252.42 509.48 247.19 518.68 274.16 503.32 279.39"/><path class="bd0f35df-e504-4bfa-8112-b165eec389ca" d="M455,295.87,443,300l1.77-24.76v-4.52l2.45-2.26,1.57-1.45,6.36-1.25S454.71,283.91,455,295.87Z"/><path class="a4cf22ea-95cd-4f29-b6e0-faf1ddc1f1e8" d="M455.11,265.72a10,10,0,0,0-8.25-3.34c-5.24.44-8.17,2.4-8.35,7.87s1.13,33-.07,43.91,6.25,12,6.68,3.94-2.74-33.43-.39-37.58.92,4.58,3.38,7.42,5.09-2.18,2.46-8.95S455.11,265.72,455.11,265.72Z"/><path class="fa2f80d7-13bc-4e58-8c2a-648ea977bb1b" d="M134.93,224.93a6.22,6.22,0,0,1-1.85-.17c-.33-.14-1.36-.57-10.28-16.49l1.61-.9c3.33,5.95,8.38,14.6,9.45,15.71a96.7,96.7,0,0,0,11-.69l.18,1.83C142.1,224.52,137.54,224.93,134.93,224.93Z"/><path class="b4114da2-109d-4d4f-8077-894c17bc7bf6" d="M167.27,232.65v.54s-.48,10.11-8.05,9.67h-.06c-4.68-.3-10.47-2.48-14.35-4.11-2.45-1-4.14-1.82-4.33-1.78-.49.07,5.74,26,5.65,27.44a2.49,2.49,0,0,1-.12.63c-.44,1.4-2,3.08-2.91,3.22-.09,0-.29-.17-.57-.51-2.81-3.5-13.95-23.82-14.26-30.46-.32-7.29,3.36-11.68,8.36-12.52,3.69-.61,14.47.87,19.87,1.7,1.92.29,3.15.5,3.15.5Z"/><path class="bd0f35df-e504-4bfa-8112-b165eec389ca" d="M146.13,264.4a2.49,2.49,0,0,1-.12.63c-.44,1.4-2,3.08-2.91,3.22-.09,0-.29-.17-.57-.51,4-5.6-6.4-32.84-4.14-32.92,1.11,0,3.57,1.86,6.42,3.92-2.45-1-4.14-1.82-4.33-1.78C140,237,146.22,262.93,146.13,264.4Z"/><path class="bd0f35df-e504-4bfa-8112-b165eec389ca" d="M167.27,232.65v.54s-.48,10.11-8.05,9.67c1.49-1.19,1.76-3.29,1.65-5.83-.13-2.93-2.84-8-4.37-10.57,1.92.29,3.15.5,3.15.5Z"/><path class="b4114da2-109d-4d4f-8077-894c17bc7bf6" d="M151.17,199.46a2.15,2.15,0,0,0-.42,1l0-.05c-.09-.15-.4-.7-.81-1.34-.69-1.06-1.64-2.39-2.22-2.55-.92-.25-3.38,2.86-6.71,3.11-.22,0-.44,0-.66,0-3.66-.17-7.54-5.36-4.42-11.47a4,4,0,0,0,3.32,2.29,1.92,1.92,0,0,1-1.41-2c4,.7,6.06-2.3,9.5-1.2s3.22,3.16,3.22,3.16,2.62-1,3.44,2.24C154.63,195.3,152.18,197.89,151.17,199.46Z"/><path class="bf5f8bf8-9fdc-4e17-8038-883eb6d04a57" d="M150.72,200.39a6.91,6.91,0,0,1-1.28,2.46,3.61,3.61,0,0,1-2.79,1.52c-2.32-.06-4.64-3.18-5.67-4.76,3.33-.25,5.79-3.36,6.71-3.11.58.16,1.53,1.49,2.22,2.55C150.32,199.69,150.63,200.24,150.72,200.39Z"/><path class="e59f2985-9eb0-4961-a047-d40272105954" d="M154.08,200.71s-1.74,4-2.4,3.12a4.32,4.32,0,0,0-2.24-1,6.91,6.91,0,0,0,1.28-2.46l0,.05a2.15,2.15,0,0,1,.42-1A7.7,7.7,0,0,0,154.08,200.71Z"/><path class="e7cafcfe-c1e0-4b32-b459-b9638be846ab" d="M166.37,234.41c-2.78-.41-10.32-8.6-10.32-12.12a10.1,10.1,0,0,0-.15-1.65c-.58-3.67-2.7-9-3.58-12.85-1-4.43.45-6.08.45-6.08,3.43-5.9,11.19,5.79,15.62,15.16h0a24.22,24.22,0,0,1,2.56,8.05C171.28,231.57,169.16,234.82,166.37,234.41Z"/><path class="bd0f35df-e504-4bfa-8112-b165eec389ca" d="M166.37,234.41c-2.78-.41-10.32-8.6-10.32-12.12a10.1,10.1,0,0,0-.15-1.65v-1.58l2.73-14.3s3.77,4.48,4.37,12.51,9.43,9.77,5.41-.39a24.22,24.22,0,0,1,2.56,8.05C171.28,231.57,169.16,234.82,166.37,234.41Z"/><path class="e7cafcfe-c1e0-4b32-b459-b9638be846ab" d="M160.53,216.72a1.19,1.19,0,0,1-.37.16,22,22,0,0,1-6.63,0,2.64,2.64,0,0,1-.54-.15c-1-.49,0-1.7-.33-3.83s-1.14-8.36,2-10.27,5.73,5.57,5.84,9.34S161.24,216.12,160.53,216.72Z"/><path class="f4eaa714-f251-4b11-846e-4ae6db0e6233" d="M160.16,216.88s-.16,9.21-1.91,13.55h0c-.55,1.35-1.25,2.23-2.16,2.21-3.81-.08-12.37-9.13-13.15-9.46s-4.67.24-4.55-.33,1.64-1.84,3.28-2.45,1.35-.25,11.88,4.58c-.14-.93-.08-4.94,0-7.22,0-.34,0-.65,0-.9A22,22,0,0,0,160.16,216.88Z"/><path class="e7cafcfe-c1e0-4b32-b459-b9638be846ab" d="M149.27,270.63c.27,1.64-10.75,12.86-10.18,9.91s4-12.29,4-12.29c.93-.14,2.47-1.82,2.91-3.22C146.91,266.59,149.05,269.27,149.27,270.63Z"/><path class="fee5fdfd-7e06-4a48-9573-4072354d8bfa" d="M159.22,236.16s-17.7-3.32-21.2-1.71,6.4,29.57,6.4,29.57"/><path class="bd0f35df-e504-4bfa-8112-b165eec389ca" d="M158.25,230.43c.33-1.85.59-7.22-.34-9.34-.63-1.44-2.95-2.67-4.4-3.32,0-.34,0-.65,0-.9a22,22,0,0,0,6.63,0S160,226.09,158.25,230.43Z"/><path class="a7ad20da-9b84-4d53-a9d5-77f5c706a24f" d="M444.26,168.15a50.9,50.9,0,0,1-1.89,5.53c-1.32,3.41-3.32,8-6.27,14.53-.07,3.28-1.12,24.25-1.41,29.08,0,.59-.06.94-.06,1a2.92,2.92,0,0,1-1.63.82c-.78.21-1.62.23-2-.24-.74-1-5.74-20.82-6-25.49s-.49-3.6,5.24-22.2c-1.39.66-10.42.41-10.42.41s1.65,22.78,1.66,22.94a.5.5,0,0,1,0,.16,4.26,4.26,0,0,1-.8,1.36c-.16.16-.33.25-.48.2a2.32,2.32,0,0,1-.6-.54,60.89,60.89,0,0,1-9.07-13.8c-3-6.8-3.77-11.55-.9-16.3s17.4-5.12,17.4-5.12c.92.26,3,.51,5.13,1A17.9,17.9,0,0,1,434,162c3.18,1,9.24,2.4,10.55,1.64A8,8,0,0,1,444.26,168.15Z"/><path class="fa2f80d7-13bc-4e58-8c2a-648ea977bb1b" d="M456.3,152.32c-.58.32-7.25.08-11.76-1.64,0,.79.12,2,.24,3.46.18,2.24.38,4.9.33,6.84,0,1.39-.19,2.41-.57,2.64h0c-.7.4-2.73.21-5-.21-1.45-.28-3-.65-4.27-1L434,162c-2.56-.86-5.75-1.19-6.94-1.52-.3-.08-.47-.16-.48-.25,0-.45,1.11-1.47,1.65-2.54.06-.13.15-.33.25-.58a46.68,46.68,0,0,0,1.45-4.58c.2-.8.27-1.32.1-1.23-.54.29-3.69,6.19-4.06,6.19a7.25,7.25,0,0,1-1.52-.88c-1.27-.86-2.86-2.12-2.9-2.72a.23.23,0,0,1,.08-.21c.74-.7,6.39-10.2,8.44-12.23a8.28,8.28,0,0,1,3-1.87,8,8,0,0,1,1.81-.47,12.81,12.81,0,0,1,3.64.42c4.07,1,7.8,3.58,9.92,4.85,2.75,1.64,4.63,1.19,5.32,1.59S456.87,152,456.3,152.32Z"/><path class="a8bd14f8-898d-46c7-8f49-aef370a66380" d="M445.11,161c-3.78.05-12.18-.29-16.66-3.88a46.68,46.68,0,0,0,1.45-4.58s8.87,2.69,14.88,1.62C445,156.38,445.16,159,445.11,161Z"/><path class="bd0f35df-e504-4bfa-8112-b165eec389ca" d="M438.51,139.52c-.14,1.57-.7,3.26-2.41,3.13a3.23,3.23,0,0,1-3-3.08,8,8,0,0,1,1.81-.47A12.81,12.81,0,0,1,438.51,139.52Z"/><path class="a54cb01a-199a-4076-bb3b-5cb9e9c64412" d="M437.49,136.09a6.8,6.8,0,0,0-1.23-2.54c-.66,1.09-3.23,1.64-5.22,1.79a8.59,8.59,0,0,1-2.15-.06,6.07,6.07,0,0,1,5.37-8c2.41-.17,4.59,1.63,3.93,4.37C440.36,133.84,437.49,136.09,437.49,136.09Z"/><path class="a8d7fcec-b2cb-49a5-ba22-4e237ff380d2" d="M437.49,136.09a8.82,8.82,0,0,1-.64,1.58h0a2.22,2.22,0,0,1-3,1.21l-.16-.07a4.72,4.72,0,0,1-2.37-2.7,6.43,6.43,0,0,1-.24-.77c2-.15,4.56-.7,5.22-1.79l.11.13A7,7,0,0,1,437.49,136.09Z"/><path class="f7918db2-568c-4528-9352-0126efffbd8a" d="M437.29,140.27c-.25,1.52-2.75,1.44-3,.45-.14-.51-.3-1-.43-1.36s-.19-.55-.19-.55h0l.16.07a2.22,2.22,0,0,0,3-1.21h0c-.17.34.28.77.43,1.57A2.93,2.93,0,0,1,437.29,140.27Z"/><path class="f0bbae58-0ef6-4153-b7f5-21a960ed9ecb" d="M424.3,200.33c-.24,1.88-10,9.26-9.83,7.95s5.13-12.59,5.13-12.59a2.32,2.32,0,0,0,.6.54c.49.14,1.12-1.11,1.28-1.56C422.79,196.31,424.52,198.65,424.3,200.33Z"/><path class="f0bbae58-0ef6-4153-b7f5-21a960ed9ecb" d="M431,234.2c-2.29-4.92,0-15.35,0-15.35.74,1,3.52-.17,3.61-.58,0,0,0-.39.06-1,0,0,.37,5,.81,9.23S433.31,239.11,431,234.2Z"/><path class="bd0f35df-e504-4bfa-8112-b165eec389ca" d="M430.28,171.16c-1.39.66-10.42.41-10.42.41s1.65,22.78,1.66,22.94a.5.5,0,0,1,0,.16,4.26,4.26,0,0,1-.8,1.36c-1.66-7.8-5-22.74-2.33-25.3,3.38-3.28,12.56-4.16,12.69-3.44A18.52,18.52,0,0,1,430.28,171.16Z"/><path class="bf7768c8-aaa0-4f39-8659-c29386f2b8f3" d="M423.78,160.4a1.13,1.13,0,0,0-.16.66c.2.76-.85,10.32-.47,11.3a18.25,18.25,0,0,1,.39,6.07c-.22,2-4.32,3.16-4.32,1.47s.49-5.68.66-7.21-1.37-12.59-1-14.12a17.58,17.58,0,0,1,2-3.74c.37-.57.63-1,.63-1,.06,1,4.09,3.6,4.42,3.6A18.28,18.28,0,0,0,423.78,160.4Z"/><path class="bd0f35df-e504-4bfa-8112-b165eec389ca" d="M444.26,168.15a8.51,8.51,0,0,1-5.26-2.34,25.65,25.65,0,0,0-6.84-4.33A17.9,17.9,0,0,1,434,162c3.18,1,9.24,2.4,10.55,1.64A8,8,0,0,1,444.26,168.15Z"/><path class="bd0f35df-e504-4bfa-8112-b165eec389ca" d="M442.37,173.68c-1.32,3.41-3.32,8-6.27,14.53-.07,3.28-1.12,24.25-1.41,29.08,0,.59-.06.94-.06,1a2.92,2.92,0,0,1-1.63.82c.19-7.07-.06-22.46,1.13-27C435.56,186.57,442,174.44,442.37,173.68Z"/><path class="bd0f35df-e504-4bfa-8112-b165eec389ca" d="M435.29,162.4,434,162c-2.56-.86-5.75-1.19-6.94-1.52-.3-.08-.47-.16-.48-.25,0-.45,1.11-1.47,1.65-2.54s2.33-6.68,1.8-6.39-3.69,6.19-4.06,6.19a7.25,7.25,0,0,1-1.52-.88l.27-.41c2-2.89,5.18-6.5,5.73-9.61.44-2.29,1.09-1,1,2C431.3,151.2,431.16,159.31,435.29,162.4Z"/><path class="bd0f35df-e504-4bfa-8112-b165eec389ca" d="M444.54,163.62h0c-.7.4-2.73.21-5-.21,4-4,1.81-14.85,2.44-14.3a15.49,15.49,0,0,0,2.54,1.56C444.62,153.63,445.81,162.85,444.54,163.62Z"/><path class="bd0f35df-e504-4bfa-8112-b165eec389ca" d="M425.94,157.48a18.28,18.28,0,0,0-2.16,2.92c0-.24,0-.47,0-.67-.12-1.17-2-3.72-2.84-4.9.37-.57.63-1,.63-1C421.58,154.84,425.61,157.48,425.94,157.48Z"/><path class="bd0f35df-e504-4bfa-8112-b165eec389ca" d="M436.37,133.68c-1,2.17-3.87,2.42-5.09,2.43a6.43,6.43,0,0,1-.24-.77c2-.15,4.56-.7,5.22-1.79Z"/><path class="bd0f35df-e504-4bfa-8112-b165eec389ca" d="M437.28,139.24a1.7,1.7,0,0,1-.69.32,4.24,4.24,0,0,1-2.75-.2c-.11-.33-.19-.55-.19-.55h0l.16.07a2.22,2.22,0,0,0,3-1.21h0C436.68,138,437.13,138.44,437.28,139.24Z"/><path class="b6f0b309-6a71-4c5d-9d45-39b56f964db1" d="M459,149.39l0,.16c-.55,2.47-2.52,2.74-2.89,2.57s-1.36-1.29-2.22-5.27c0-.08,0-.16-.05-.24s-1.86-4.77-2.73-7.05c-2.16-1.28-2.57-.76-2.87-2.24a4.34,4.34,0,0,1,1.2-3.66c.55-.27,3,2,3.34,2.87S459.45,146.77,459,149.39Z"/><path class="bd0f35df-e504-4bfa-8112-b165eec389ca" d="M458.93,149.55c-.55,2.47-2.52,2.74-2.89,2.57s-1.36-1.29-2.22-5.27a8.5,8.5,0,0,0,2.31,3.13A2,2,0,0,0,458.93,149.55Z"/><path class="fa2f80d7-13bc-4e58-8c2a-648ea977bb1b" d="M386.54,278.62l-5.27-26.91q-5.85-29.85-22.55-43.56t-41.28-8.89Q292.87,204.08,282.6,223t-4.41,48.84l5.29,27q5.82,29.74,22.53,43.45a43.49,43.49,0,0,0,15.53,8.27q11.59,3.41,25.84.61A61.67,61.67,0,0,0,360.86,347a43.91,43.91,0,0,0,21.27-19.49Q392.41,308.58,386.54,278.62Zm-32.89,36.12q-2.7,8.28-11.43,10-9,1.78-14.7-5.08-3.87-4.67-6.61-13.86h0v0c-.84-2.84-1.61-6-2.29-9.5l-7.39-37.77q-2.61-14.88,0-23t11.41-9.83a14.21,14.21,0,0,1,11.63,2.27h0a16.67,16.67,0,0,1,3.11,3q5.72,7.05,8.83,23l7.15,36.56Q356.36,306.46,353.65,314.74Z"/><path class="bd0f35df-e504-4bfa-8112-b165eec389ca" d="M356.29,319.79c1.52,2.33,3.54,18.21,4.57,27.16a61.67,61.67,0,0,1-13.48,4.18q-14.25,2.78-25.84-.61a20.36,20.36,0,0,0,.85-2.22c4.83-14.73-1.2-41.32-1.48-42.52q2.74,9.2,6.61,13.86,5.66,6.86,14.7,5.08,8.73-1.71,11.43-10t-.32-24.24l-7.15-36.56q-3.12-15.93-8.83-23a16.67,16.67,0,0,0-3.11-3c11.63,2.28,21.07,38.28,25,55.64S363.51,309,356.29,319.79Z"/><path class="a7ad20da-9b84-4d53-a9d5-77f5c706a24f" d="M323.48,312.85s.75,2,4.71,3.06,7.68-5,10.3-3.06S345.31,323,349,321.74s4.78,18.42,3,20.61-3-15.48-7.62-15-1.12,13.86-3.75,16.26-1.53-5.9-4.37-7.43,3.06,66.86-1.31,67.95-7.21-3.06-5.46-17.7-.44-65.11-3.06-67.73S324,315.64,323.48,312.85Z"/><path class="f0bbae58-0ef6-4153-b7f5-21a960ed9ecb" d="M379.11,115.94s-3.48-9.55-3.19-10.29,4.11-2.13,4.39-1.72,2.7,7.83,2.29,8.36S379.11,115.94,379.11,115.94Z"/><path class="bd1d0963-67bc-46bf-9a26-f2574b5a26fa" d="M321.19,103.42a6.26,6.26,0,0,1,3.07,3.18c.94,2.29.57-6,.57-6l-1-1Z"/><path class="b7ea5c25-5934-4d10-a6ed-020d3a903612" d="M320.08,103.42a30.5,30.5,0,0,0,3.11,2.11c.46.12,1.33-5.08.93-5.9s-1.84-1.64-2.77-1.1S319.64,103.1,320.08,103.42Z"/><path class="a6cf8d67-1355-4a59-908e-8b598ec414f1" d="M327.17,104s-2.12-4.92-3.05-5.78-2.65.25-2.77.7,2.06.77,2.77,1.51-1.21,6.19.63,8.11S327.17,104,327.17,104Z"/><path class="fc11d653-e57d-4ac6-aca0-c059baf51c4a" d="M376.49,117a11.87,11.87,0,0,0,2.3-1.55c.41-.54-.33-2.54.86-4.39s3.72-1.31,4.34.9-1,5-1.72,5.86-5.78,4.47-5.78,4.47"/><path class="e6fd752f-0841-491d-94ae-04fbeab7a4ea" d="M377.84,121.32a4.45,4.45,0,0,1-1,1.65c-2.39,2.79-9,8.26-20.85,14.52a28.53,28.53,0,0,0-.56,2.9,48.38,48.38,0,0,0-.29,9.09c0,.72.09,1.43.14,2.11.21,3,.51,5.44.43,6.87a1.9,1.9,0,0,1-.36,1.23,7.17,7.17,0,0,1-.84.64c-5.93,3.8-16.73-1.88-18.47-3.59a.87.87,0,0,1-.24-.33c-.31-1.15.87-2.37,1.53-4.34a13.69,13.69,0,0,0,.33-2.11c.31-3,.58-8.45.68-12.53a38.89,38.89,0,0,0-.08-5.2v0c-.33-1.33-10.27-16.36-13.26-21.68a6.65,6.65,0,0,1-.84-1.8c.11-1.2,2.41-5.47,2.9-5.41a4.84,4.84,0,0,1,.84,1c2.31,3.2,8.5,12.88,9.65,14.11s6.49,6.87,8.82,9.32l1.06,1.11a26.94,26.94,0,0,0,3.79-.33c11.18-1.72,22.16-9.55,25-11.72l.72-.56S378.09,119.79,377.84,121.32Z"/><path class="b2c6c81f-3c0e-4764-9d30-33d5f17edd18" d="M350,133.83c-3.81.61-3.82-4.35-3.62-6.06l1.06,1.11a26.94,26.94,0,0,0,3.79-.33C351.66,130.5,351.28,133.61,350,133.83Z"/><path class="f0bbae58-0ef6-4153-b7f5-21a960ed9ecb" d="M353.81,123.19a3.69,3.69,0,0,1-2.94.28,10.84,10.84,0,0,1-3.34-1.63,6.08,6.08,0,0,0-1.11,3.48c-2.7-2.34-3.36-4.67-1.06-5.53-.94-4.1,1.06-5,4.42-5.16s4.14,3.23,6.15,3.15C356.05,119.62,355.53,122.18,353.81,123.19Z"/><path class="fe8d447b-ea7d-4ff6-8071-807276fe7058" d="M353.81,123.19c0,.33-.09.72-.17,1.13-.45,2.39-1.63,5.73-3.4,5.55a1.07,1.07,0,0,1-.29-.06,5.49,5.49,0,0,1-3.06-3.19,8.78,8.78,0,0,1-.47-1.3,7.42,7.42,0,0,1,.3-1.83,5,5,0,0,1,.81-1.65,10.84,10.84,0,0,0,3.34,1.63A3.69,3.69,0,0,0,353.81,123.19Z"/><path class="a5266c24-14e4-42bf-b486-3599979d1078" d="M350.24,131.28c0,.87-.14,1.55-.72,1.59-1.17.08-2.73-1.45-2.65-3.11,0-.57,0-1.17,0-1.72s0-1.06,0-1.42a5.49,5.49,0,0,0,3.06,3.19,1.07,1.07,0,0,0,.29.06C350.24,130.35,350.25,130.84,350.24,131.28Z"/><path class="b2c6c81f-3c0e-4764-9d30-33d5f17edd18" d="M377.84,121.32a4.45,4.45,0,0,1-1,1.65,45.21,45.21,0,0,0-.58-6.14l.72-.56S378.09,119.79,377.84,121.32Z"/><path class="b2c6c81f-3c0e-4764-9d30-33d5f17edd18" d="M327.86,104.34c-1.74,1.5-2.59,4.75-2.9,6.19a6.65,6.65,0,0,1-.84-1.8c.11-1.2,2.41-5.47,2.9-5.41A4.84,4.84,0,0,1,327.86,104.34Z"/><path class="a68b9c3d-8571-4333-b070-464f17457cae" d="M355.24,151.59c-3.91.57-11.26,1.07-17.62-1.63.31-3,.58-8.45.68-12.53,3.15,1.33,9.95,3.71,17.09,3A52.21,52.21,0,0,0,355.24,151.59Z"/><path class="bd0f35df-e504-4bfa-8112-b165eec389ca" d="M354.47,160.33c-6.39,4.1-18.43-2.82-18.71-3.92s.87-2.37,1.53-4.34a13.69,13.69,0,0,0,.33-2.11c.31-3,.58-8.45.68-12.53a38.89,38.89,0,0,0-.08-5.2,112.87,112.87,0,0,1,3.41,13.94c1.15,6.88.9,10.16,4.26,12.37C347.86,159.83,351.45,160.51,354.47,160.33Z"/><path class="ba70951b-f429-496b-8ffc-8d7ac76ff54d" d="M369.08,179.24c0,2.85-10.28,18.59-12.4,21.82l-.39.58a13.55,13.55,0,0,1-2.41-.52c-.76-.26-1.41-.62-1.41-1.12a3.65,3.65,0,0,1,0-.46c.37-2.2,2.63-10.13,5.52-20.62-1.52-1.86-12.23-9-12.23-9a0,0,0,0,0,0,0c-.47,1.07-15.33,35.44-17,38.64a2.4,2.4,0,0,1-.12.22c-.77,1-3.94,1.09-4.16-1h0c-.91-8.69,6.59-34.9,10.08-46.49.62-2.07,1.12-3.68,1.42-4.63,1.74,1.71,12.54,7.39,18.47,3.59a7.17,7.17,0,0,0,.84-.64,1.9,1.9,0,0,0,.36-1.23c.11.11.22.24.34.38C360.15,163.57,369.08,176.51,369.08,179.24Z"/><path class="f0bbae58-0ef6-4153-b7f5-21a960ed9ecb" d="M329.83,213.44c-.41,2.05-11.22,8.11-10.24,4.44.8-3,3.81-8.16,4.91-10h0c.22,2.07,3.39,2,4.16,1a2.4,2.4,0,0,0,.12-.22C329.34,210.21,330.1,212.12,329.83,213.44Z"/><path class="f0bbae58-0ef6-4153-b7f5-21a960ed9ecb" d="M360.23,211.64c-.82.41-11.47-3.69-11.23-5.08s3.52-7,3.52-7a3.65,3.65,0,0,0,0,.46c0,1.2,3.82,1.64,3.82,1.64l.39-.58C357.15,205.31,361,211.25,360.23,211.64Z"/><path class="a124c4fd-9ec3-45f2-a8a7-f4c8b4370f02" d="M344.42,168.78s-11.8,23.18-16.23,39.08"/><path class="a124c4fd-9ec3-45f2-a8a7-f4c8b4370f02" d="M347.2,168.78s13.11,8.61,13.6,10-6.8,20.76-6.8,20.76"/><path class="bd0f35df-e504-4bfa-8112-b165eec389ca" d="M356,158.84c-1.44,5.77-9.8,4.2-14.08,3.09a25.5,25.5,0,0,0-7.35-.56c.62-2.07,1.12-3.68,1.42-4.63,1.74,1.71,12.54,7.39,18.47,3.59a7.17,7.17,0,0,0,.84-.64,1.9,1.9,0,0,0,.36-1.23C355.78,158.57,355.89,158.7,356,158.84Z"/><path class="bd0f35df-e504-4bfa-8112-b165eec389ca" d="M353.88,201.12c-.76-.26-1.41-.62-1.41-1.12a3.65,3.65,0,0,1,0-.46c.37-2.2,2.63-10.13,5.52-20.62-1.52-1.86-12.23-9-12.23-9s.87-3,1.86-3.17,12.34,9.56,13.59,11.58C362.37,180.15,354.64,194.66,353.88,201.12Z"/><path class="bd0f35df-e504-4bfa-8112-b165eec389ca" d="M353.81,123.19c0,.33-.09.72-.17,1.13-2.86,1.45-5.67-1.83-6-1.79-.19,0-.59.52-.91,1a5,5,0,0,1,.81-1.65,10.84,10.84,0,0,0,3.34,1.63A3.69,3.69,0,0,0,353.81,123.19Z"/><path class="bd0f35df-e504-4bfa-8112-b165eec389ca" d="M350.24,131.28c-1.89-.46-2.93-2.35-3.33-3.24,0-.56,0-1.06,0-1.42a5.49,5.49,0,0,0,3.06,3.19,1.07,1.07,0,0,0,.29.06C350.24,130.35,350.25,130.84,350.24,131.28Z"/><path class="bd0f35df-e504-4bfa-8112-b165eec389ca" d="M355.39,140.39a48.38,48.38,0,0,0-.29,9.09c-.74-3.14-1.39-6.52-.63-8.47a20.76,20.76,0,0,1,1.48-3.52A28.53,28.53,0,0,0,355.39,140.39Z"/><path class="a7ad20da-9b84-4d53-a9d5-77f5c706a24f" d="M263.4,171.74,228,165.66,228,166l-78.12,88-1.61,22,11.2,1.93,19.39,3.33,26,4.48,2.48.42-1.86,10.85-.87,5-2.84,16.57,23,4,12.35,2.12,5.57-32.43,15.54,2.66L263,267.52l-15.54-2.67Zm-44.15,45.07-7.22,42-8.63-1.49-18.87-3.24L195,241.58l2.39-2.86,19.93-23.78,2.82-3.19Z"/><path class="bd0f35df-e504-4bfa-8112-b165eec389ca" d="M204.87,285.65l-26-4.48c3.07-10.12,6.9-24.08,5.69-27.12l18.87,3.24a18.94,18.94,0,0,1,2.43,8.59C206.29,272.61,205.28,279.48,204.87,285.65Z"/><path class="ba70951b-f429-496b-8ffc-8d7ac76ff54d" d="M185.66,254.24s2.84-3.93,9.23-2.7,6.88,9.09,4.09,17.78-3.44,39-2.13,48.83.49,14.42-2.62,14.75-4.59-11.8-2.78-20.32,1.63-16.39-1.32-15.08-.49,4.59-2,7.54-5.9,1.15-5.74-4.42S191.51,258.84,185.66,254.24Z"/><polygon class="bd0f35df-e504-4bfa-8112-b165eec389ca" points="247.41 264.85 262.95 267.52 258.26 294.81 242.72 292.15 237.15 324.58 224.8 322.46 246.5 187.03 263.4 171.74 247.41 264.85"/><path class="e6fd752f-0841-491d-94ae-04fbeab7a4ea" d="M302.71,132.23a6.39,6.39,0,1,1-6.39-6.39A6.39,6.39,0,0,1,302.71,132.23Z"/><path class="a7ad20da-9b84-4d53-a9d5-77f5c706a24f" d="M525.07,213.45a6.39,6.39,0,1,1-6.39-6.39A6.39,6.39,0,0,1,525.07,213.45Z"/><path class="ba70951b-f429-496b-8ffc-8d7ac76ff54d" d="M190.92,166.79a6.39,6.39,0,1,1-6.39-6.39A6.39,6.39,0,0,1,190.92,166.79Z"/><path class="fa2f80d7-13bc-4e58-8c2a-648ea977bb1b" d="M296.32,362.23a6.39,6.39,0,1,1-6.39-6.39A6.39,6.39,0,0,1,296.32,362.23Z"/><circle class="e6fd752f-0841-491d-94ae-04fbeab7a4ea" cx="482.15" cy="151.47" r="2.46"/><circle class="ba70951b-f429-496b-8ffc-8d7ac76ff54d" cx="293.86" cy="189.85" r="2.46"/><path class="a7ad20da-9b84-4d53-a9d5-77f5c706a24f" d="M222.58,156.48a2.47,2.47,0,1,1-2.46-2.47A2.46,2.46,0,0,1,222.58,156.48Z"/><path class="bc95457f-e351-477a-8bfd-73537d314e32" d="M553.59,21.39s-9.85-9.84-28.52-5.9-31.79,33.43-45.39,40-40.4,25.91-42.4,42.45c26.19-21.8,36-12.3,53.06-14.92s18.35-22.61,42.93-22,50.8,31.2,75.38,14.13,53.42-37.4,30.15-54.11S568.34,29.91,553.59,21.39Z"/><path class="fea9e00b-7b76-4db1-876a-27657c892ed2" d="M154.74,87.84s-2.56,13.68,11.22,26.88,45.53,7.41,58.61,14.94,44.18,18.74,59,11.07c-32.77-9.33-30.47-22.81-42.24-35.4s-29-2.41-42.35-23.07S196.07,22.71,168.11,12s-61-23-61.69,5.61S153.46,70.85,154.74,87.84Z"/><path class="bea4bb49-4136-40e6-82d6-1e10f1299f24" d="M630.61,166.26s-40,43.87-48.5,95.3S532.6,309.72,518.68,334s-47.09,26.22-62.3,36-49.84-7.21-55.79,0,31.07,18.36,79.09,19,57.2-36.7,99.8-41.95S664.69,323.49,679.77,254,669.28,147.34,630.61,166.26Z"/><path class="f4345a4f-d9c2-4345-8ee4-5ee0e5a3a4fb" d="M53.55,183.93s40,43.87,48.5,95.3,49.51,48.16,63.43,72.41,47.09,26.22,62.3,36.05,49.84-7.21,55.79,0-31.07,18.35-79.09,19-57.2-36.71-99.8-41.95S19.46,341.15,4.39,271.67,14.88,165,53.55,183.93Z"/></g></g></g></svg>