<svg xmlns="http://www.w3.org/2000/svg" viewBox="0 0 335.81 212.91"><defs><style>.adc27aea-35bf-4c6e-9eb1-644e455c016e{isolation:isolate;}.e4c78a4a-607c-40ce-a45b-c0ec82ffc8da{fill:#d5d8dd;}.f9f25a3b-b05f-419c-a7f3-f8327a894105{fill:#c8ccd3;opacity:0.75;}.b508814e-d92d-4bf6-97cb-a0090cb42e95,.b5df4d8e-30d1-42f8-a5f1-7a9f5ff16910,.bc9a56cd-9a54-468a-9c11-e81002f1e617,.e8140eab-ff4b-409d-aeb3-485e0d077a70,.f081f2c7-1b59-48cb-8577-b302d5b2bf3d,.f5545c97-3eea-47f4-ad12-f37b6762e186,.f9f25a3b-b05f-419c-a7f3-f8327a894105{mix-blend-mode:multiply;}.b91be24b-2735-4171-9e7a-6bca51883337{fill:#888f9f;}.bc9a56cd-9a54-468a-9c11-e81002f1e617{fill:#a9afba;}.bc30fe0a-ea1f-42cf-b93f-1200113430c9,.bc9a56cd-9a54-468a-9c11-e81002f1e617{opacity:0.55;}.bb1d5ee0-a679-4e7f-8c1f-301fd8102098{fill:#444248;}.aab07199-2be3-4e30-a590-c361043537cc{fill:#cccfd6;}.bab48397-3014-4e82-9e8d-064fb8c4c0d7{fill:#e6e8eb;}.a048baa6-fdb1-430d-aa69-b2eeef1bbe46,.bc30fe0a-ea1f-42cf-b93f-1200113430c9,.f081f2c7-1b59-48cb-8577-b302d5b2bf3d{fill:#64739a;}.bc30fe0a-ea1f-42cf-b93f-1200113430c9{mix-blend-mode:screen;}.b5df4d8e-30d1-42f8-a5f1-7a9f5ff16910{fill:#76848b;}.b5df4d8e-30d1-42f8-a5f1-7a9f5ff16910,.f081f2c7-1b59-48cb-8577-b302d5b2bf3d{opacity:0.5;}.b0f83113-ef2d-46fe-afaa-814ff300ea06{fill:#9aa0ae;}.aa6e4736-88b5-4cbe-a0e4-79ce5036ae8f,.b508814e-d92d-4bf6-97cb-a0090cb42e95{fill:#c78b5b;}.babeeba2-0fe0-49cc-a1c0-f87a7e786c49{fill:#e5be84;}.aa578ea2-d790-4de4-80f5-6568d78496a4{fill:#ead1b7;}.a12a9670-2214-4246-b8d7-959223d26b54{fill:#f7eee5;}.b508814e-d92d-4bf6-97cb-a0090cb42e95,.e8140eab-ff4b-409d-aeb3-485e0d077a70{opacity:0.32;}.e8140eab-ff4b-409d-aeb3-485e0d077a70{fill:#b05c18;}.b9342398-c89a-4dff-b8a6-4c20cfc9940d{fill:#aea9ad;}.bd976acc-4369-4cc6-a273-346ebbf4f00d{fill:#fff;}.a152d523-557f-4fab-8d8e-f8710abf18a5{fill:#757478;}.a15fed3e-3f1a-4356-8eb6-740d56f4a51f{fill:#fea92c;}.af563cea-9e68-456f-8427-f87ac27b276d{fill:#ced1d7;}.bcab4095-9b67-469c-8098-e07a54fff3ca{fill:#c68c65;}</style></defs><title>Middel 2test bg</title><g class="adc27aea-35bf-4c6e-9eb1-644e455c016e"><g id="a8111728-5e10-4a38-a0d4-2d570bc3eefc" data-name="Laag 2"><g id="f60b6d4d-78bc-4d04-a9df-92c70e075621" data-name="Layer 1"><rect class="e4c78a4a-607c-40ce-a45b-c0ec82ffc8da" width="335.81" height="212.91"/><ellipse class="f9f25a3b-b05f-419c-a7f3-f8327a894105" cx="170.34" cy="123.75" rx="82.71" ry="9.76"/><ellipse class="f9f25a3b-b05f-419c-a7f3-f8327a894105" cx="158.68" cy="169.96" rx="25.84" ry="2.59"/><rect class="b91be24b-2735-4171-9e7a-6bca51883337" x="102.2" y="59.59" width="139.22" height="65.04"/><rect class="bc9a56cd-9a54-468a-9c11-e81002f1e617" x="102.2" y="59.59" width="139.22" height="18.78"/><polygon class="bb1d5ee0-a679-4e7f-8c1f-301fd8102098" points="246.53 72.25 97.1 72.25 101.11 59.59 242.51 59.59 246.53 72.25"/><g class="f5545c97-3eea-47f4-ad12-f37b6762e186"><rect class="aab07199-2be3-4e30-a590-c361043537cc" x="109.54" y="84.77" width="23.64" height="10.2"/><rect class="aab07199-2be3-4e30-a590-c361043537cc" x="109.54" y="103.3" width="23.64" height="10.2"/><rect class="aab07199-2be3-4e30-a590-c361043537cc" x="139.25" y="84.77" width="23.64" height="10.2"/></g><rect class="bab48397-3014-4e82-9e8d-064fb8c4c0d7" x="109.97" y="84.16" width="23.64" height="10.2"/><rect class="a048baa6-fdb1-430d-aa69-b2eeef1bbe46" x="111.12" y="85.43" width="21.34" height="7.65"/><polygon class="bc30fe0a-ea1f-42cf-b93f-1200113430c9" points="132.46 93.09 111.11 93.09 111.11 85.43 132.46 93.09"/><rect class="aab07199-2be3-4e30-a590-c361043537cc" x="121.32" y="85.43" width="0.94" height="7.65"/><rect class="aab07199-2be3-4e30-a590-c361043537cc" x="111.12" y="88.79" width="21.34" height="0.94"/><rect class="bab48397-3014-4e82-9e8d-064fb8c4c0d7" x="109.97" y="102.69" width="23.64" height="10.2"/><rect class="a048baa6-fdb1-430d-aa69-b2eeef1bbe46" x="111.12" y="103.97" width="21.34" height="7.65"/><polygon class="bc30fe0a-ea1f-42cf-b93f-1200113430c9" points="132.46 111.62 111.11 111.62 111.11 103.97 132.46 111.62"/><rect class="aab07199-2be3-4e30-a590-c361043537cc" x="121.32" y="103.97" width="0.94" height="7.65"/><rect class="aab07199-2be3-4e30-a590-c361043537cc" x="111.12" y="107.33" width="21.34" height="0.94"/><rect class="bab48397-3014-4e82-9e8d-064fb8c4c0d7" x="139.68" y="84.16" width="23.64" height="10.2"/><rect class="a048baa6-fdb1-430d-aa69-b2eeef1bbe46" x="140.83" y="85.43" width="21.34" height="7.65"/><polygon class="bc30fe0a-ea1f-42cf-b93f-1200113430c9" points="162.17 93.09 140.83 93.09 140.83 85.43 162.17 93.09"/><rect class="aab07199-2be3-4e30-a590-c361043537cc" x="151.03" y="85.43" width="0.94" height="7.65"/><rect class="aab07199-2be3-4e30-a590-c361043537cc" x="140.83" y="88.79" width="21.34" height="0.94"/><rect class="aab07199-2be3-4e30-a590-c361043537cc" x="142.24" y="101.11" width="17.58" height="23.52"/><rect class="bb1d5ee0-a679-4e7f-8c1f-301fd8102098" x="143.86" y="102.69" width="14.34" height="21.94"/><rect class="bab48397-3014-4e82-9e8d-064fb8c4c0d7" x="179.09" y="84.16" width="50.89" height="40.47"/><rect class="a048baa6-fdb1-430d-aa69-b2eeef1bbe46" x="180.54" y="84.16" width="47.98" height="40.47"/><polygon class="b5df4d8e-30d1-42f8-a5f1-7a9f5ff16910" points="221.01 120.54 221.01 111.96 219.1 111.96 219.1 108.11 216.21 108.11 216.21 105.2 206.54 105.2 206.54 108.03 199.44 108.03 199.44 120.54 221.01 120.54"/><polygon class="b5df4d8e-30d1-42f8-a5f1-7a9f5ff16910" points="190.66 109.4 190.66 105.55 187.77 105.55 187.77 102.63 180.54 102.63 180.54 117.97 192.57 117.97 192.57 109.4 190.66 109.4"/><polygon class="b5df4d8e-30d1-42f8-a5f1-7a9f5ff16910" points="228.52 106.45 227.19 106.45 227.19 108.49 224.3 108.49 224.3 111.19 222.4 111.19 222.4 117.19 228.52 117.19 228.52 106.45"/><rect class="bb1d5ee0-a679-4e7f-8c1f-301fd8102098" x="178.69" y="82.91" width="51.68" height="2.15"/><rect class="bb1d5ee0-a679-4e7f-8c1f-301fd8102098" x="180.54" y="118.55" width="47.98" height="6.08"/><rect class="aab07199-2be3-4e30-a590-c361043537cc" x="180.54" y="85.06" width="47.98" height="16.04"/><rect class="b0f83113-ef2d-46fe-afaa-814ff300ea06" x="180.54" y="86.88" width="47.98" height="0.91"/><rect class="b0f83113-ef2d-46fe-afaa-814ff300ea06" x="180.54" y="89.27" width="47.98" height="0.91"/><rect class="b0f83113-ef2d-46fe-afaa-814ff300ea06" x="180.54" y="91.67" width="47.98" height="0.91"/><rect class="b0f83113-ef2d-46fe-afaa-814ff300ea06" x="180.54" y="94.06" width="47.98" height="0.91"/><rect class="b0f83113-ef2d-46fe-afaa-814ff300ea06" x="180.54" y="96.46" width="47.98" height="0.91"/><rect class="b0f83113-ef2d-46fe-afaa-814ff300ea06" x="180.54" y="98.85" width="47.98" height="0.91"/><rect class="aa6e4736-88b5-4cbe-a0e4-79ce5036ae8f" x="187.65" y="104.78" width="7.27" height="10.56"/><rect class="babeeba2-0fe0-49cc-a1c0-f87a7e786c49" x="190.12" y="104.78" width="7.19" height="10.56"/><rect class="aa578ea2-d790-4de4-80f5-6568d78496a4" x="193.26" y="104.78" width="1.69" height="2.18"/><rect class="aa578ea2-d790-4de4-80f5-6568d78496a4" x="193.26" y="113.16" width="1.69" height="2.18"/><rect class="a12a9670-2214-4246-b8d7-959223d26b54" x="190.53" y="113.6" width="2.23" height="1.35"/><rect class="bb1d5ee0-a679-4e7f-8c1f-301fd8102098" x="190.63" y="113.79" width="0.24" height="0.97"/><rect class="bb1d5ee0-a679-4e7f-8c1f-301fd8102098" x="191.01" y="113.79" width="0.08" height="0.97"/><rect class="bb1d5ee0-a679-4e7f-8c1f-301fd8102098" x="191.44" y="113.79" width="0.19" height="0.97"/><rect class="bb1d5ee0-a679-4e7f-8c1f-301fd8102098" x="191.19" y="113.79" width="0.12" height="0.97"/><rect class="bb1d5ee0-a679-4e7f-8c1f-301fd8102098" x="191.77" y="113.79" width="0.08" height="0.97"/><rect class="bb1d5ee0-a679-4e7f-8c1f-301fd8102098" x="192.15" y="113.79" width="0.16" height="0.97"/><rect class="bb1d5ee0-a679-4e7f-8c1f-301fd8102098" x="192.37" y="113.79" width="0.08" height="0.97"/><rect class="bb1d5ee0-a679-4e7f-8c1f-301fd8102098" x="191.97" y="113.79" width="0.11" height="0.97"/><rect class="bb1d5ee0-a679-4e7f-8c1f-301fd8102098" x="192.53" y="113.79" width="0.12" height="0.97"/><rect class="b508814e-d92d-4bf6-97cb-a0090cb42e95" x="190.97" y="108.53" width="6.34" height="6.8"/><rect class="aa6e4736-88b5-4cbe-a0e4-79ce5036ae8f" x="180.54" y="108.94" width="6.94" height="6.8"/><rect class="babeeba2-0fe0-49cc-a1c0-f87a7e786c49" x="182.51" y="108.94" width="6.89" height="6.8"/><rect class="aa578ea2-d790-4de4-80f5-6568d78496a4" x="185.03" y="108.94" width="1.85" height="1.75"/><rect class="aa578ea2-d790-4de4-80f5-6568d78496a4" x="185.03" y="113.99" width="1.85" height="1.75"/><rect class="a12a9670-2214-4246-b8d7-959223d26b54" x="182.84" y="114.34" width="1.79" height="1.08"/><rect class="bb1d5ee0-a679-4e7f-8c1f-301fd8102098" x="182.92" y="114.49" width="0.19" height="0.78"/><rect class="bb1d5ee0-a679-4e7f-8c1f-301fd8102098" x="183.22" y="114.49" width="0.07" height="0.78"/><rect class="bb1d5ee0-a679-4e7f-8c1f-301fd8102098" x="183.56" y="114.49" width="0.16" height="0.78"/><rect class="bb1d5ee0-a679-4e7f-8c1f-301fd8102098" x="183.37" y="114.49" width="0.09" height="0.78"/><rect class="bb1d5ee0-a679-4e7f-8c1f-301fd8102098" x="183.83" y="114.49" width="0.06" height="0.78"/><rect class="bb1d5ee0-a679-4e7f-8c1f-301fd8102098" x="184.14" y="114.49" width="0.13" height="0.78"/><rect class="bb1d5ee0-a679-4e7f-8c1f-301fd8102098" x="184.31" y="114.49" width="0.06" height="0.78"/><rect class="bb1d5ee0-a679-4e7f-8c1f-301fd8102098" x="183.99" y="114.49" width="0.09" height="0.78"/><rect class="bb1d5ee0-a679-4e7f-8c1f-301fd8102098" x="184.44" y="114.49" width="0.09" height="0.78"/><rect class="b508814e-d92d-4bf6-97cb-a0090cb42e95" x="182.98" y="110.61" width="6.42" height="5.13"/><rect class="aa6e4736-88b5-4cbe-a0e4-79ce5036ae8f" x="192.71" y="109.07" width="5.87" height="5.74"/><rect class="babeeba2-0fe0-49cc-a1c0-f87a7e786c49" x="194.39" y="109.07" width="5.82" height="5.74"/><rect class="aa578ea2-d790-4de4-80f5-6568d78496a4" x="196.83" y="109.07" width="0.93" height="1.48"/><rect class="aa578ea2-d790-4de4-80f5-6568d78496a4" x="196.83" y="113.33" width="0.93" height="1.48"/><rect class="a12a9670-2214-4246-b8d7-959223d26b54" x="198.28" y="113.63" width="1.51" height="0.91"/><rect class="bb1d5ee0-a679-4e7f-8c1f-301fd8102098" x="198.35" y="113.76" width="0.16" height="0.66"/><rect class="bb1d5ee0-a679-4e7f-8c1f-301fd8102098" x="198.61" y="113.76" width="0.06" height="0.66"/><rect class="bb1d5ee0-a679-4e7f-8c1f-301fd8102098" x="198.9" y="113.76" width="0.13" height="0.66"/><rect class="bb1d5ee0-a679-4e7f-8c1f-301fd8102098" x="198.73" y="113.76" width="0.08" height="0.66"/><rect class="bb1d5ee0-a679-4e7f-8c1f-301fd8102098" x="199.13" y="113.76" width="0.05" height="0.66"/><rect class="bb1d5ee0-a679-4e7f-8c1f-301fd8102098" x="199.38" y="113.76" width="0.11" height="0.66"/><rect class="bb1d5ee0-a679-4e7f-8c1f-301fd8102098" x="199.53" y="113.76" width="0.05" height="0.66"/><rect class="bb1d5ee0-a679-4e7f-8c1f-301fd8102098" x="199.26" y="113.76" width="0.07" height="0.66"/><rect class="bb1d5ee0-a679-4e7f-8c1f-301fd8102098" x="199.64" y="113.76" width="0.08" height="0.66"/><rect class="aa6e4736-88b5-4cbe-a0e4-79ce5036ae8f" x="194.61" y="114.74" width="5.87" height="5.74"/><rect class="babeeba2-0fe0-49cc-a1c0-f87a7e786c49" x="196.29" y="114.74" width="5.82" height="5.74"/><rect class="aa578ea2-d790-4de4-80f5-6568d78496a4" x="198.42" y="114.74" width="1.56" height="1.48"/><rect class="aa578ea2-d790-4de4-80f5-6568d78496a4" x="198.42" y="119" width="1.56" height="1.48"/><rect class="a12a9670-2214-4246-b8d7-959223d26b54" x="196.57" y="119.3" width="1.51" height="0.91"/><rect class="bb1d5ee0-a679-4e7f-8c1f-301fd8102098" x="196.64" y="119.43" width="0.16" height="0.66"/><rect class="bb1d5ee0-a679-4e7f-8c1f-301fd8102098" x="196.89" y="119.43" width="0.06" height="0.66"/><rect class="bb1d5ee0-a679-4e7f-8c1f-301fd8102098" x="197.18" y="119.43" width="0.13" height="0.66"/><rect class="bb1d5ee0-a679-4e7f-8c1f-301fd8102098" x="197.01" y="119.43" width="0.08" height="0.66"/><rect class="bb1d5ee0-a679-4e7f-8c1f-301fd8102098" x="197.41" y="119.43" width="0.05" height="0.66"/><rect class="bb1d5ee0-a679-4e7f-8c1f-301fd8102098" x="197.67" y="119.43" width="0.11" height="0.66"/><rect class="bb1d5ee0-a679-4e7f-8c1f-301fd8102098" x="197.81" y="119.43" width="0.05" height="0.66"/><rect class="bb1d5ee0-a679-4e7f-8c1f-301fd8102098" x="197.54" y="119.43" width="0.07" height="0.66"/><rect class="bb1d5ee0-a679-4e7f-8c1f-301fd8102098" x="197.92" y="119.43" width="0.08" height="0.66"/><rect class="aa6e4736-88b5-4cbe-a0e4-79ce5036ae8f" x="184.09" y="111.55" width="9.13" height="8.93"/><rect class="babeeba2-0fe0-49cc-a1c0-f87a7e786c49" x="186.7" y="111.55" width="9.05" height="8.93"/><rect class="aa578ea2-d790-4de4-80f5-6568d78496a4" x="190.01" y="111.55" width="2.43" height="2.3"/><rect class="aa578ea2-d790-4de4-80f5-6568d78496a4" x="190.01" y="118.18" width="2.43" height="2.3"/><rect class="a12a9670-2214-4246-b8d7-959223d26b54" x="187.13" y="118.65" width="2.35" height="1.42"/><rect class="bb1d5ee0-a679-4e7f-8c1f-301fd8102098" x="187.24" y="118.85" width="0.25" height="1.02"/><rect class="bb1d5ee0-a679-4e7f-8c1f-301fd8102098" x="187.64" y="118.85" width="0.09" height="1.02"/><rect class="bb1d5ee0-a679-4e7f-8c1f-301fd8102098" x="188.08" y="118.85" width="0.2" height="1.02"/><rect class="bb1d5ee0-a679-4e7f-8c1f-301fd8102098" x="187.83" y="118.85" width="0.12" height="1.02"/><rect class="bb1d5ee0-a679-4e7f-8c1f-301fd8102098" x="188.44" y="118.85" width="0.08" height="1.02"/><rect class="bb1d5ee0-a679-4e7f-8c1f-301fd8102098" x="188.84" y="118.85" width="0.17" height="1.02"/><rect class="bb1d5ee0-a679-4e7f-8c1f-301fd8102098" x="189.07" y="118.85" width="0.08" height="1.02"/><rect class="bb1d5ee0-a679-4e7f-8c1f-301fd8102098" x="188.65" y="118.85" width="0.12" height="1.02"/><rect class="bb1d5ee0-a679-4e7f-8c1f-301fd8102098" x="189.24" y="118.85" width="0.12" height="1.02"/><rect class="aa6e4736-88b5-4cbe-a0e4-79ce5036ae8f" x="180.54" y="114.74" width="3.05" height="5.74"/><rect class="babeeba2-0fe0-49cc-a1c0-f87a7e786c49" x="180.54" y="114.74" width="4.68" height="5.74"/><rect class="aa578ea2-d790-4de4-80f5-6568d78496a4" x="181.53" y="114.74" width="1.56" height="1.48"/><rect class="aa578ea2-d790-4de4-80f5-6568d78496a4" x="181.53" y="119" width="1.56" height="1.48"/><rect class="a12a9670-2214-4246-b8d7-959223d26b54" x="180.54" y="119.3" width="0.65" height="0.91"/><rect class="bb1d5ee0-a679-4e7f-8c1f-301fd8102098" x="180.78" y="119.43" width="0.11" height="0.66"/><rect class="bb1d5ee0-a679-4e7f-8c1f-301fd8102098" x="180.92" y="119.43" width="0.05" height="0.66"/><rect class="bb1d5ee0-a679-4e7f-8c1f-301fd8102098" x="180.65" y="119.43" width="0.07" height="0.66"/><rect class="bb1d5ee0-a679-4e7f-8c1f-301fd8102098" x="181.03" y="119.43" width="0.08" height="0.66"/><rect class="b508814e-d92d-4bf6-97cb-a0090cb42e95" x="183.62" y="114.74" width="1.6" height="5.74"/><path class="b508814e-d92d-4bf6-97cb-a0090cb42e95" d="M197.93,109.07h-.62v-4.29h-9.66v4.16h-7.11v11.44C186.26,116.49,192.19,112.93,197.93,109.07Z"/><rect class="aa6e4736-88b5-4cbe-a0e4-79ce5036ae8f" x="222.64" y="110.4" width="5.19" height="5.07"/><rect class="babeeba2-0fe0-49cc-a1c0-f87a7e786c49" x="224.12" y="110.4" width="4.39" height="5.07"/><rect class="aa578ea2-d790-4de4-80f5-6568d78496a4" x="226.29" y="110.4" width="0.82" height="1.3"/><rect class="aa578ea2-d790-4de4-80f5-6568d78496a4" x="226.29" y="114.16" width="0.82" height="1.3"/><rect class="bb1d5ee0-a679-4e7f-8c1f-301fd8102098" x="227.63" y="114.54" width="0.14" height="0.58"/><rect class="bb1d5ee0-a679-4e7f-8c1f-301fd8102098" x="227.86" y="114.54" width="0.05" height="0.58"/><rect class="bb1d5ee0-a679-4e7f-8c1f-301fd8102098" x="228.11" y="114.54" width="0.12" height="0.58"/><rect class="bb1d5ee0-a679-4e7f-8c1f-301fd8102098" x="227.96" y="114.54" width="0.07" height="0.58"/><rect class="bb1d5ee0-a679-4e7f-8c1f-301fd8102098" x="228.31" y="114.54" width="0.05" height="0.58"/><rect class="bb1d5ee0-a679-4e7f-8c1f-301fd8102098" x="228.43" y="114.54" width="0.07" height="0.58"/><rect class="aa6e4736-88b5-4cbe-a0e4-79ce5036ae8f" x="224.32" y="115.41" width="4.19" height="5.07"/><rect class="babeeba2-0fe0-49cc-a1c0-f87a7e786c49" x="225.81" y="115.41" width="2.71" height="5.07"/><rect class="aa578ea2-d790-4de4-80f5-6568d78496a4" x="227.69" y="115.41" width="0.83" height="1.3"/><rect class="aa578ea2-d790-4de4-80f5-6568d78496a4" x="227.69" y="119.17" width="0.83" height="1.3"/><rect class="a12a9670-2214-4246-b8d7-959223d26b54" x="226.05" y="119.44" width="1.33" height="0.81"/><rect class="bb1d5ee0-a679-4e7f-8c1f-301fd8102098" x="226.11" y="119.55" width="0.14" height="0.58"/><rect class="bb1d5ee0-a679-4e7f-8c1f-301fd8102098" x="226.34" y="119.55" width="0.05" height="0.58"/><rect class="bb1d5ee0-a679-4e7f-8c1f-301fd8102098" x="226.59" y="119.55" width="0.12" height="0.58"/><rect class="bb1d5ee0-a679-4e7f-8c1f-301fd8102098" x="226.45" y="119.55" width="0.07" height="0.58"/><rect class="bb1d5ee0-a679-4e7f-8c1f-301fd8102098" x="226.8" y="119.55" width="0.05" height="0.58"/><rect class="bb1d5ee0-a679-4e7f-8c1f-301fd8102098" x="227.02" y="119.55" width="0.1" height="0.58"/><rect class="bb1d5ee0-a679-4e7f-8c1f-301fd8102098" x="227.15" y="119.55" width="0.05" height="0.58"/><rect class="bb1d5ee0-a679-4e7f-8c1f-301fd8102098" x="226.92" y="119.55" width="0.07" height="0.58"/><rect class="bb1d5ee0-a679-4e7f-8c1f-301fd8102098" x="227.25" y="119.55" width="0.07" height="0.58"/><rect class="aa6e4736-88b5-4cbe-a0e4-79ce5036ae8f" x="215.02" y="112.59" width="8.07" height="7.89"/><rect class="babeeba2-0fe0-49cc-a1c0-f87a7e786c49" x="217.33" y="112.59" width="8" height="7.89"/><rect class="aa578ea2-d790-4de4-80f5-6568d78496a4" x="220.26" y="112.59" width="2.15" height="2.03"/><rect class="aa578ea2-d790-4de4-80f5-6568d78496a4" x="220.26" y="118.45" width="2.15" height="2.03"/><rect class="a12a9670-2214-4246-b8d7-959223d26b54" x="217.71" y="118.86" width="2.08" height="1.25"/><rect class="bb1d5ee0-a679-4e7f-8c1f-301fd8102098" x="217.81" y="119.04" width="0.22" height="0.9"/><rect class="bb1d5ee0-a679-4e7f-8c1f-301fd8102098" x="218.16" y="119.04" width="0.08" height="0.9"/><rect class="bb1d5ee0-a679-4e7f-8c1f-301fd8102098" x="218.55" y="119.04" width="0.18" height="0.9"/><rect class="bb1d5ee0-a679-4e7f-8c1f-301fd8102098" x="218.33" y="119.04" width="0.11" height="0.9"/><rect class="bb1d5ee0-a679-4e7f-8c1f-301fd8102098" x="218.87" y="119.04" width="0.07" height="0.9"/><rect class="bb1d5ee0-a679-4e7f-8c1f-301fd8102098" x="219.22" y="119.04" width="0.15" height="0.9"/><rect class="bb1d5ee0-a679-4e7f-8c1f-301fd8102098" x="219.42" y="119.04" width="0.07" height="0.9"/><rect class="bb1d5ee0-a679-4e7f-8c1f-301fd8102098" x="219.05" y="119.04" width="0.1" height="0.9"/><rect class="bb1d5ee0-a679-4e7f-8c1f-301fd8102098" x="219.58" y="119.04" width="0.11" height="0.9"/><polygon class="e8140eab-ff4b-409d-aeb3-485e0d077a70" points="224.98 110.4 224.98 114.88 223.31 114.88 223.31 120.48 228.52 120.48 228.52 110.4 224.98 110.4"/><rect class="b9342398-c89a-4dff-b8a6-4c20cfc9940d" x="149.54" y="42.82" width="75.05" height="16.78"/><path class="bd976acc-4369-4cc6-a273-346ebbf4f00d" d="M174.75,53.94a2.94,2.94,0,0,1-.69-.23,2.87,2.87,0,0,1-.59-.39l.49-.61a2.19,2.19,0,0,0,.72.42,2.55,2.55,0,0,0,.84.14,1.62,1.62,0,0,0,1-.23.71.71,0,0,0,.34-.64h0a.72.72,0,0,0-.15-.47,1.11,1.11,0,0,0-.4-.26,6,6,0,0,0-.63-.15h-.11a5.84,5.84,0,0,1-.93-.22,1.27,1.27,0,0,1-.61-.45,1.49,1.49,0,0,1-.25-.93h0A1.63,1.63,0,0,1,174,49a1.5,1.5,0,0,1,.69-.57,2.75,2.75,0,0,1,1.09-.2,2.83,2.83,0,0,1,1.18.27,4.18,4.18,0,0,1,.57.33l-.46.63a2.59,2.59,0,0,0-.64-.36,1.87,1.87,0,0,0-.65-.12,1.46,1.46,0,0,0-.9.24.75.75,0,0,0-.33.66h0a.64.64,0,0,0,.17.46,1,1,0,0,0,.41.25,6.08,6.08,0,0,0,.69.16h.15a5.33,5.33,0,0,1,.86.25,1.38,1.38,0,0,1,.58.47,1.51,1.51,0,0,1,.23.88h0a1.48,1.48,0,0,1-1,1.45,2.9,2.9,0,0,1-1.13.19A3.19,3.19,0,0,1,174.75,53.94Z"/><path class="bd976acc-4369-4cc6-a273-346ebbf4f00d" d="M178,48.28h4V49h-4Zm1.61.47h.79V54h-.79Z"/><path class="bd976acc-4369-4cc6-a273-346ebbf4f00d" d="M183.43,53.76a1.76,1.76,0,0,1-.7-.73,2.32,2.32,0,0,1-.25-1.1V50.32a2.29,2.29,0,0,1,.25-1.1,1.78,1.78,0,0,1,.7-.74,2.23,2.23,0,0,1,2.09,0,1.78,1.78,0,0,1,.7.74,2.29,2.29,0,0,1,.25,1.1v1.61a2.32,2.32,0,0,1-.25,1.1,1.76,1.76,0,0,1-.7.73,2.23,2.23,0,0,1-2.09,0Zm1.66-.68a1.14,1.14,0,0,0,.42-.45,1.57,1.57,0,0,0,.14-.67V50.29a1.57,1.57,0,0,0-.14-.67,1,1,0,0,0-.42-.45,1.15,1.15,0,0,0-.62-.16,1.17,1.17,0,0,0-.62.16,1.06,1.06,0,0,0-.41.45,1.44,1.44,0,0,0-.15.67V52a1.44,1.44,0,0,0,.15.67,1.19,1.19,0,0,0,.41.45,1.27,1.27,0,0,0,.62.16A1.24,1.24,0,0,0,185.09,53.08Z"/><path class="bd976acc-4369-4cc6-a273-346ebbf4f00d" d="M187.76,48.28h.8V54h-.8Zm.35,2.52H190a.7.7,0,0,0,.41-.11.75.75,0,0,0,.27-.31,1.22,1.22,0,0,0,0-.92.75.75,0,0,0-.27-.31A.7.7,0,0,0,190,49h-1.93v-.76H190a1.86,1.86,0,0,1,.87.2,1.47,1.47,0,0,1,.58.58,1.82,1.82,0,0,1,.2.86,1.71,1.71,0,0,1-.21.86,1.41,1.41,0,0,1-.58.58,1.79,1.79,0,0,1-.86.2h-1.9Zm1.54.59.8-.18L191.9,54h-1Z"/><path class="bd976acc-4369-4cc6-a273-346ebbf4f00d" d="M194.36,48.28H195l2.1,5.68h-.86l-1.58-4.58L193.13,54h-.86ZM193.24,52h3v.76h-3Z"/><path class="bd976acc-4369-4cc6-a273-346ebbf4f00d" d="M201.76,50.9v1a2.45,2.45,0,0,1-.24,1.11,1.88,1.88,0,0,1-.7.75,2.29,2.29,0,0,1-2.1,0,1.71,1.71,0,0,1-.71-.7,2.2,2.2,0,0,1-.25-1V50.35a2.47,2.47,0,0,1,.25-1.12,1.73,1.73,0,0,1,.7-.74,2,2,0,0,1,1-.27,1.93,1.93,0,0,1,.9.21,1.81,1.81,0,0,1,.69.6,2.18,2.18,0,0,1,.38.88h-.87a1.07,1.07,0,0,0-.24-.49,1.16,1.16,0,0,0-.39-.31,1.12,1.12,0,0,0-.47-.11,1.1,1.1,0,0,0-1,.64,1.73,1.73,0,0,0-.14.71V52a1.29,1.29,0,0,0,.15.64,1,1,0,0,0,.42.43,1.26,1.26,0,0,0,.62.15,1.21,1.21,0,0,0,.62-.15,1,1,0,0,0,.41-.46,1.59,1.59,0,0,0,.15-.72v-.24h-1.16V50.9Z"/><path class="bd976acc-4369-4cc6-a273-346ebbf4f00d" d="M203.05,48.28h.8V54h-.8Zm.39,0h3.26V49h-3.26Zm0,2.48h2.83v.76h-2.83Zm0,2.45h3.26V54h-3.26Z"/><path class="a152d523-557f-4fab-8d8e-f8710abf18a5" d="M138.25,160.28h-1.58a.31.31,0,0,1-.3-.3V122.74a.29.29,0,0,0-.3-.3h-4.32a.3.3,0,0,0-.3.3v.89a.31.31,0,0,0,.3.3h2.5a.29.29,0,0,1,.3.3v37.9a.31.31,0,0,0,.31.3h3.39Z"/><path class="a048baa6-fdb1-430d-aa69-b2eeef1bbe46" d="M179.74,159.56H136.82v6.28h42.92a.29.29,0,0,0,.3-.3v-5.68A.29.29,0,0,0,179.74,159.56Z"/><path class="f081f2c7-1b59-48cb-8577-b302d5b2bf3d" d="M134.24,123.75a11.43,11.43,0,0,1,.16-1.31h-2.65a.3.3,0,0,0-.3.3v.89a.31.31,0,0,0,.3.3h2.45Z"/><rect class="a15fed3e-3f1a-4356-8eb6-740d56f4a51f" x="121.98" y="121.28" width="11.16" height="3.64" rx="0.96"/><path class="f081f2c7-1b59-48cb-8577-b302d5b2bf3d" d="M144.7,160.18a5.22,5.22,0,0,0-5.21,5.22c0,.15,0,.29,0,.44h10.38c0-.15,0-.29,0-.44A5.22,5.22,0,0,0,144.7,160.18Z"/><path class="bb1d5ee0-a679-4e7f-8c1f-301fd8102098" d="M151.39,165.69a5.21,5.21,0,1,1-5.21-5.21A5.21,5.21,0,0,1,151.39,165.69Z"/><path class="af563cea-9e68-456f-8427-f87ac27b276d" d="M148.71,165.69a2.53,2.53,0,1,1-2.53-2.53A2.53,2.53,0,0,1,148.71,165.69Z"/><path class="f081f2c7-1b59-48cb-8577-b302d5b2bf3d" d="M171.66,160.18a5.22,5.22,0,0,0-5.21,5.22c0,.15,0,.29,0,.44h10.38c0-.15,0-.29,0-.44A5.22,5.22,0,0,0,171.66,160.18Z"/><path class="bb1d5ee0-a679-4e7f-8c1f-301fd8102098" d="M178.32,165.69a5.21,5.21,0,1,1-5.21-5.21A5.21,5.21,0,0,1,178.32,165.69Z"/><path class="af563cea-9e68-456f-8427-f87ac27b276d" d="M175.65,165.69a2.54,2.54,0,1,1-2.54-2.53A2.54,2.54,0,0,1,175.65,165.69Z"/><polygon class="bcab4095-9b67-469c-8098-e07a54fff3ca" points="163.31 130.48 158.37 130.48 154.74 130.48 149.8 130.48 149.8 142.43 148.01 142.43 141.18 142.43 141.18 159.56 148.01 159.56 153.03 159.56 159.86 159.56 159.86 143.8 163.31 143.8 163.31 130.48"/><rect class="aa6e4736-88b5-4cbe-a0e4-79ce5036ae8f" x="157.15" y="146.24" width="9.66" height="13.32"/><rect class="babeeba2-0fe0-49cc-a1c0-f87a7e786c49" x="147.85" y="146.24" width="13.51" height="13.32"/><rect class="aa578ea2-d790-4de4-80f5-6568d78496a4" x="152.8" y="146.24" width="3.63" height="3.43"/><rect class="aa578ea2-d790-4de4-80f5-6568d78496a4" x="152.8" y="156.13" width="3.63" height="3.43"/><rect class="a12a9670-2214-4246-b8d7-959223d26b54" x="148.5" y="156.83" width="3.51" height="2.12"/><rect class="bb1d5ee0-a679-4e7f-8c1f-301fd8102098" x="148.66" y="157.12" width="0.37" height="1.52"/><rect class="bb1d5ee0-a679-4e7f-8c1f-301fd8102098" x="149.26" y="157.12" width="0.13" height="1.52"/><rect class="bb1d5ee0-a679-4e7f-8c1f-301fd8102098" x="149.92" y="157.12" width="0.3" height="1.52"/><rect class="bb1d5ee0-a679-4e7f-8c1f-301fd8102098" x="149.54" y="157.12" width="0.19" height="1.52"/><rect class="bb1d5ee0-a679-4e7f-8c1f-301fd8102098" x="150.46" y="157.12" width="0.13" height="1.52"/><rect class="bb1d5ee0-a679-4e7f-8c1f-301fd8102098" x="151.05" y="157.12" width="0.25" height="1.52"/><rect class="bb1d5ee0-a679-4e7f-8c1f-301fd8102098" x="151.39" y="157.12" width="0.13" height="1.52"/><rect class="bb1d5ee0-a679-4e7f-8c1f-301fd8102098" x="150.77" y="157.12" width="0.17" height="1.52"/><rect class="bb1d5ee0-a679-4e7f-8c1f-301fd8102098" x="151.65" y="157.12" width="0.19" height="1.52"/><rect class="babeeba2-0fe0-49cc-a1c0-f87a7e786c49" x="162.82" y="146.24" width="13.51" height="13.32"/><rect class="aa578ea2-d790-4de4-80f5-6568d78496a4" x="167.76" y="146.24" width="3.63" height="3.43"/><rect class="aa578ea2-d790-4de4-80f5-6568d78496a4" x="167.76" y="156.13" width="3.63" height="3.43"/><rect class="a12a9670-2214-4246-b8d7-959223d26b54" x="163.47" y="156.83" width="3.51" height="2.12"/><rect class="bb1d5ee0-a679-4e7f-8c1f-301fd8102098" x="163.63" y="157.12" width="0.37" height="1.52"/><rect class="bb1d5ee0-a679-4e7f-8c1f-301fd8102098" x="164.23" y="157.12" width="0.13" height="1.52"/><rect class="bb1d5ee0-a679-4e7f-8c1f-301fd8102098" x="164.89" y="157.12" width="0.31" height="1.52"/><rect class="bb1d5ee0-a679-4e7f-8c1f-301fd8102098" x="164.51" y="157.12" width="0.19" height="1.52"/><rect class="bb1d5ee0-a679-4e7f-8c1f-301fd8102098" x="165.42" y="157.12" width="0.13" height="1.52"/><rect class="bb1d5ee0-a679-4e7f-8c1f-301fd8102098" x="166.02" y="157.12" width="0.25" height="1.52"/><rect class="bb1d5ee0-a679-4e7f-8c1f-301fd8102098" x="166.36" y="157.12" width="0.13" height="1.52"/><rect class="bb1d5ee0-a679-4e7f-8c1f-301fd8102098" x="165.73" y="157.12" width="0.17" height="1.52"/><rect class="bb1d5ee0-a679-4e7f-8c1f-301fd8102098" x="166.62" y="157.12" width="0.19" height="1.52"/><rect class="babeeba2-0fe0-49cc-a1c0-f87a7e786c49" x="155.37" y="132.91" width="13.51" height="13.32"/><rect class="aa578ea2-d790-4de4-80f5-6568d78496a4" x="160.32" y="132.91" width="3.63" height="3.43"/><rect class="aa578ea2-d790-4de4-80f5-6568d78496a4" x="160.32" y="142.81" width="3.63" height="3.43"/><rect class="a12a9670-2214-4246-b8d7-959223d26b54" x="156.02" y="143.5" width="3.51" height="2.12"/><rect class="bb1d5ee0-a679-4e7f-8c1f-301fd8102098" x="156.18" y="143.8" width="0.37" height="1.52"/><rect class="bb1d5ee0-a679-4e7f-8c1f-301fd8102098" x="156.78" y="143.8" width="0.13" height="1.52"/><rect class="bb1d5ee0-a679-4e7f-8c1f-301fd8102098" x="157.44" y="143.8" width="0.3" height="1.52"/><rect class="bb1d5ee0-a679-4e7f-8c1f-301fd8102098" x="157.06" y="143.8" width="0.19" height="1.52"/><rect class="bb1d5ee0-a679-4e7f-8c1f-301fd8102098" x="157.98" y="143.8" width="0.13" height="1.52"/><rect class="bb1d5ee0-a679-4e7f-8c1f-301fd8102098" x="158.57" y="143.8" width="0.25" height="1.52"/><rect class="bb1d5ee0-a679-4e7f-8c1f-301fd8102098" x="158.91" y="143.8" width="0.13" height="1.52"/><rect class="bb1d5ee0-a679-4e7f-8c1f-301fd8102098" x="158.29" y="143.8" width="0.17" height="1.52"/><rect class="bb1d5ee0-a679-4e7f-8c1f-301fd8102098" x="159.17" y="143.8" width="0.19" height="1.52"/></g></g></g></svg>