<?xml version="1.0" encoding="iso-8859-1"?>
<!-- Generator: Adobe Illustrator 19.2.1, SVG Export Plug-In . SVG Version: 6.00 Build 0)  -->
<svg version="1.1" id="Layer_1" xmlns="http://www.w3.org/2000/svg" xmlns:xlink="http://www.w3.org/1999/xlink" x="0px" y="0px"
	 viewBox="0 0 40 40" style="enable-background:new 0 0 40 40;" xml:space="preserve">
<g>
	<polygon style="fill:#DBF2FF;" points="2.5,38.5 2.5,10.267 19.997,3.536 37.5,10.267 37.5,38.5 	"/>
	<g>
		<path style="fill:#7496C4;" d="M19.997,4.071L37,10.61V38H3V10.61L19.997,4.071 M19.997,3L2,9.923V39h36V9.923L19.997,3L19.997,3z
			"/>
	</g>
</g>
<g>
	<polygon style="fill:#FFC49C;" points="19.997,5.457 1.5,13.247 1.5,9.332 19.997,1.543 38.5,9.332 38.5,13.247 	"/>
	<g>
		<path style="fill:#A16A4A;" d="M19.997,2.085L38,9.664v2.83L20.385,5.078l-0.388-0.163l-0.388,0.163L2,12.494v-2.83L19.997,2.085
			 M19.997,1L1,9v5l18.997-8L39,14V9L19.997,1L19.997,1z"/>
	</g>
</g>
<rect x="3" y="34" style="fill:#B5DDF5;" width="34" height="4"/>
<g>
	<rect x="8.5" y="17.5" style="fill:#B0C1D4;" width="23" height="21"/>
	<g>
		<path style="fill:#66798F;" d="M31,18v20H9V18H31 M32,17H8v22h24V17L32,17z"/>
	</g>
</g>
<g>
	<rect x="17.5" y="10.5" style="fill:#8BB7F0;" width="5" height="4"/>
	<g>
		<path style="fill:#4E7AB5;" d="M22,11v3h-4v-3H22 M23,10h-6v5h6V10L23,10z"/>
	</g>
</g>
<rect x="9" y="17" style="fill:#93A7BD;" width="22" height="2"/>
<rect x="9" y="20" style="fill:#C2D5EB;" width="22" height="1"/>
<rect x="9" y="22" style="fill:#C2D5EB;" width="22" height="1"/>
<rect x="9" y="24" style="fill:#C2D5EB;" width="22" height="1"/>
<rect x="9" y="26" style="fill:#C2D5EB;" width="22" height="1"/>
<rect x="9" y="28" style="fill:#C2D5EB;" width="22" height="1"/>
<rect x="9" y="30" style="fill:#C2D5EB;" width="22" height="1"/>
<rect x="9" y="32" style="fill:#C2D5EB;" width="22" height="1"/>
<rect x="9" y="34" style="fill:#C2D5EB;" width="22" height="1"/>
<rect x="9" y="36" style="fill:#C2D5EB;" width="22" height="1"/>
<line style="fill:none;stroke:#66798F;stroke-miterlimit:10;" x1="17" y1="35.5" x2="23" y2="35.5"/>
</svg>
